HIERARCHY
ROOT Hips
{
  OFFSET 5.80788e-005 67.184 3.4734
  CHANNELS 6 Xposition Yposition Zposition Zrotation Xrotation Yrotation
  JOINT Chest
  {
    OFFSET 0 8.7983 -4.7612
    CHANNELS 3 Zrotation Xrotation Yrotation
    JOINT Chest2
    {
      OFFSET 0 8.0291 0.4195
      CHANNELS 3 Zrotation Xrotation Yrotation
      JOINT Chest3
      {
        OFFSET 0 9.9351 -2.2114
        CHANNELS 3 Zrotation Xrotation Yrotation
        JOINT Neck
        {
          OFFSET 0 22.3885 -0.4656
          CHANNELS 3 Zrotation Xrotation Yrotation
          JOINT Head
          {
            OFFSET -0.0001 12.643 3.4389
            CHANNELS 3 Zrotation Xrotation Yrotation
            End Site
            {
              OFFSET 0.0001 17.6655 0.5274
            }
          }
        }
        JOINT LeftCollar
        {
          OFFSET 2.2603 21.606 7.4023
          CHANNELS 3 Zrotation Xrotation Yrotation
          JOINT LeftShoulder
          {
            OFFSET 13.5163 -1.1332 -5.0146
            CHANNELS 3 Zrotation Xrotation Yrotation
            JOINT LeftElbow
            {
              OFFSET -0.0995 -28.05 -0.2431
              CHANNELS 3 Zrotation Xrotation Yrotation
              JOINT LeftWrist
              {
                OFFSET 0.0679 -23.3996 -0.1402
                CHANNELS 3 Zrotation Xrotation Yrotation
                JOINT LeftFinger1
                {
                  OFFSET 0.7932 -9.069 2.5189
                  CHANNELS 3 Zrotation Xrotation Yrotation
                  JOINT LeftFinger11
                  {
                    OFFSET -0.8272 -3.3923 0.5977
                    CHANNELS 3 Zrotation Xrotation Yrotation
                    JOINT LeftFinger12
                    {
                      OFFSET -0.5649 -2.3158 0.4082
                      CHANNELS 3 Zrotation Xrotation Yrotation
                      End Site
                      {
                        OFFSET -0.4919 -1.6479 0.2673
                      }
                    }
                  }
                }
                JOINT LeftFinger2
                {
                  OFFSET 0.9159 -9.2044 0.2193
                  CHANNELS 3 Zrotation Xrotation Yrotation
                  JOINT LeftFinger21
                  {
                    OFFSET 0.0117 -4.1944 -0.0248
                    CHANNELS 3 Zrotation Xrotation Yrotation
                    JOINT LeftFinger22
                    {
                      OFFSET 0.0071 -2.3249 -0.0142
                      CHANNELS 3 Zrotation Xrotation Yrotation
                      End Site
                      {
                        OFFSET -0.1475 -2.0882 0.0028
                      }
                    }
                  }
                }
                JOINT LeftFinger3
                {
                  OFFSET 0.6113 -8.7231 -2.0637
                  CHANNELS 3 Zrotation Xrotation Yrotation
                  JOINT LeftFinger31
                  {
                    OFFSET -0.1927 -3.8059 -0.2383
                    CHANNELS 3 Zrotation Xrotation Yrotation
                    JOINT LeftFinger32
                    {
                      OFFSET -0.1091 -2.1688 -0.1362
                      CHANNELS 3 Zrotation Xrotation Yrotation
                      End Site
                      {
                        OFFSET -0.2358 -1.9176 -0.0906
                      }
                    }
                  }
                }
                JOINT LeftFinger4
                {
                  OFFSET -0.6151 -8.0947 -3.5641
                  CHANNELS 3 Zrotation Xrotation Yrotation
                  JOINT LeftFinger41
                  {
                    OFFSET -0.4882 -2.341 -0.6462
                    CHANNELS 3 Zrotation Xrotation Yrotation
                    JOINT LeftFinger42
                    {
                      OFFSET -0.3575 -1.7167 -0.4742
                      CHANNELS 3 Zrotation Xrotation Yrotation
                      End Site
                      {
                        OFFSET -0.4187 -1.5237 -0.3496
                      }
                    }
                  }
                }
                JOINT LeftFinger0
                {
                  OFFSET -1.42 -1.8761 1.4223
                  CHANNELS 3 Zrotation Xrotation Yrotation
                  JOINT LeftFinger01
                  {
                    OFFSET -1.1471 -3.4929 2.6334
                    CHANNELS 3 Zrotation Xrotation Yrotation
                    JOINT LeftFinger02
                    {
                      OFFSET -0.823 -2.3 1.6571
                      CHANNELS 3 Zrotation Xrotation Yrotation
                      End Site
                      {
                        OFFSET -0.5822 -1.6914 1.1582
                      }
                    }
                  }
                }
              }
            }
          }
        }
        JOINT RightCollar
        {
          OFFSET -2.2603 21.606 7.4023
          CHANNELS 3 Zrotation Xrotation Yrotation
          JOINT RightShoulder
          {
            OFFSET -13.5187 -1.1334 -5.0155
            CHANNELS 3 Zrotation Xrotation Yrotation
            JOINT RightElbow
            {
              OFFSET 0.0994 -28.0499 -0.2431
              CHANNELS 3 Zrotation Xrotation Yrotation
              JOINT RightWrist
              {
                OFFSET -0.0679 -23.3996 -0.1402
                CHANNELS 3 Zrotation Xrotation Yrotation
                JOINT RightFinger1
                {
                  OFFSET -0.7932 -9.0691 2.5189
                  CHANNELS 3 Zrotation Xrotation Yrotation
                  JOINT RightFinger11
                  {
                    OFFSET 0.8272 -3.3923 0.5977
                    CHANNELS 3 Zrotation Xrotation Yrotation
                    JOINT RightFinger12
                    {
                      OFFSET 0.565 -2.3158 0.4082
                      CHANNELS 3 Zrotation Xrotation Yrotation
                      End Site
                      {
                        OFFSET 0.4919 -1.6479 0.2673
                      }
                    }
                  }
                }
                JOINT RightFinger2
                {
                  OFFSET -0.916 -9.2044 0.2193
                  CHANNELS 3 Zrotation Xrotation Yrotation
                  JOINT RightFinger21
                  {
                    OFFSET -0.0117 -4.1944 -0.0248
                    CHANNELS 3 Zrotation Xrotation Yrotation
                    JOINT RightFinger22
                    {
                      OFFSET -0.0071 -2.3249 -0.0142
                      CHANNELS 3 Zrotation Xrotation Yrotation
                      End Site
                      {
                        OFFSET 0.1475 -2.0882 0.0028
                      }
                    }
                  }
                }
                JOINT RightFinger3
                {
                  OFFSET -0.6113 -8.7231 -2.0637
                  CHANNELS 3 Zrotation Xrotation Yrotation
                  JOINT RightFinger31
                  {
                    OFFSET 0.1927 -3.8059 -0.2383
                    CHANNELS 3 Zrotation Xrotation Yrotation
                    JOINT RightFinger32
                    {
                      OFFSET 0.1091 -2.1688 -0.1362
                      CHANNELS 3 Zrotation Xrotation Yrotation
                      End Site
                      {
                        OFFSET 0.2358 -1.9176 -0.0906
                      }
                    }
                  }
                }
                JOINT RightFinger4
                {
                  OFFSET 0.6151 -8.0947 -3.564
                  CHANNELS 3 Zrotation Xrotation Yrotation
                  JOINT RightFinger41
                  {
                    OFFSET 0.4882 -2.341 -0.6462
                    CHANNELS 3 Zrotation Xrotation Yrotation
                    JOINT RightFinger42
                    {
                      OFFSET 0.3574 -1.7166 -0.4742
                      CHANNELS 3 Zrotation Xrotation Yrotation
                      End Site
                      {
                        OFFSET 0.4187 -1.5237 -0.3496
                      }
                    }
                  }
                }
                JOINT RightFinger0
                {
                  OFFSET 1.4199 -1.8761 1.4221
                  CHANNELS 3 Zrotation Xrotation Yrotation
                  JOINT RightFinger01
                  {
                    OFFSET 1.1472 -3.4929 2.6336
                    CHANNELS 3 Zrotation Xrotation Yrotation
                    JOINT RightFinger02
                    {
                      OFFSET 0.8229 -2.3 1.6571
                      CHANNELS 3 Zrotation Xrotation Yrotation
                      End Site
                      {
                        OFFSET 0.5822 -1.6914 1.1582
                      }
                    }
                  }
                }
              }
            }
          }
        }
      }
    }
  }
  JOINT RightHip
  {
    OFFSET -9.412 3.9771 -0.7758
    CHANNELS 3 Zrotation Xrotation Yrotation
    JOINT RightKnee
    {
      OFFSET -0.7531 -40.938 0
      CHANNELS 3 Zrotation Xrotation Yrotation
      JOINT RightAnkle
      {
        OFFSET 0 -40.1986 0
        CHANNELS 3 Zrotation Xrotation Yrotation
        JOINT RightToe
        {
          OFFSET 0 -4.4182 9.239
          CHANNELS 3 Zrotation Xrotation Yrotation
          End Site
          {
            OFFSET 0 0 6.1981
          }
        }
      }
    }
  }
  JOINT LeftHip
  {
    OFFSET 9.4119 3.9773 -0.7758
    CHANNELS 3 Zrotation Xrotation Yrotation
    JOINT LeftKnee
    {
      OFFSET 0.7532 -40.9383 0
      CHANNELS 3 Zrotation Xrotation Yrotation
      JOINT LeftAnkle
      {
        OFFSET 0 -40.1986 0
        CHANNELS 3 Zrotation Xrotation Yrotation
        JOINT LeftToe
        {
          OFFSET 0 -4.4182 9.239
          CHANNELS 3 Zrotation Xrotation Yrotation
          End Site
          {
            OFFSET 0 0 6.1981
          }
        }
      }
    }
  }
}
MOTION
Frames:	5
Frame Time:	0.0333333
5.80788e-005 67.184 3.4734 0 0 -0 0 0 -0 0 0 -0 0 0 -0 0 0 -0 0 0 -0 0 0 -12.5014 88.1196 14.2451 10.6914 -0.00160068 -0.00239207 0.000740045 -8.4365e-005 7.00714e-005 -9.52055e-007 9.93923e-017 -1.98785e-016 -1.59028e-015 9.93923e-017 -5.96354e-016 -1.59028e-015 -9.93923e-017 -5.96354e-016 -1.59028e-015 9.93923e-017 -1.98785e-016 -1.59028e-015 -0.0128176 0.00232552 8.52707e-005 9.93923e-017 5.96354e-016 -0 9.93923e-017 -1.98785e-016 -1.59028e-015 -0.0160551 0.00299681 0.000857156 -2.48481e-016 0 3.18055e-015 9.93923e-017 -1.98785e-016 -1.59028e-015 -0.0125865 0.0031206 0.00282719 0 1.98785e-016 -0 9.93923e-017 -1.98785e-016 -1.59028e-015 9.93923e-017 -5.96354e-016 -1.59028e-015 -9.93923e-017 -5.96354e-016 -1.59028e-015 -0.865644 0.16582 7.03859 -88.0329 10.2057 -10.5567 0.0015593 -0.00248883 -0.000788628 7.87605e-005 4.10553e-005 1.24965e-005 -3.97569e-016 -7.95139e-016 3.18055e-015 -1.98785e-016 -3.97569e-016 3.18055e-015 -1.98785e-016 0 3.18055e-015 -3.97569e-016 -7.95139e-016 3.18055e-015 0.0129473 0.00231697 -8.70038e-005 9.93923e-017 -7.95139e-016 1.59028e-015 -3.97569e-016 -7.95139e-016 3.18055e-015 0.0163314 0.00303369 -0.000872333 3.97569e-016 7.95139e-016 -3.18055e-015 -3.97569e-016 -7.95139e-016 3.18055e-015 0.0145763 0.00367772 -0.00326275 9.93923e-017 -3.97569e-016 -0 -3.97569e-016 -7.95139e-016 3.18055e-015 -1.98785e-016 -3.97569e-016 3.18055e-015 -1.98785e-016 0 3.18055e-015 3.42485 1.36937 -0.0640303 0.000136572 0.69354 0.00145564 -3.42573 -2.06297 -0.0607933 -3.19502e-024 0 -1.48106e-024 -3.42498 1.36123 0.0639712 -6.769e-005 0.712612 -0.0012277 3.42582 -2.07388 0.0612819 2.55305e-023 0 -2.31416e-026 
40.8993 38.5363 19.7085 -168.753 62.6767 -7.44012e-006 -0.0264823 8.60111 -0.0906902 -0.0397081 17.2023 -0.180413 -0.0397098 17.2023 -0.180416 -9.19152e-007 14.8207 9.17041e-007 3.6004e-008 0.128058 7.63664e-007 -18.2889 -1.45194 -14.6511 43.0479 13.0918 -39.1687 0.427801 -15.8991 -38.1098 1.51236 -1.82699 5.76772 -2.06902e-031 1.59028e-015 7.45443e-015 -2.3173e-031 3.18055e-015 4.17448e-015 -1.10348e-031 1.59028e-015 3.97569e-015 -2.06902e-031 1.59028e-015 7.45443e-015 -0.0128183 0.00232879 0.000108101 1.59028e-015 -6.36111e-015 -4.07509e-015 -2.06902e-031 1.59028e-015 7.45443e-015 -0.016058 0.00300054 0.000865267 -1.59028e-015 0 1.98785e-016 -2.06902e-031 1.59028e-015 7.45443e-015 -0.0125975 0.00314046 0.00284194 7.95139e-016 0 2.98177e-015 -2.06902e-031 1.59028e-015 7.45443e-015 -2.3173e-031 3.18055e-015 4.17448e-015 -1.10348e-031 1.59028e-015 3.97569e-015 10.5805 -2.05611 8.43853 -35.352 8.42635 42.5342 1.68495 -20.558 38.5066 -1.69164 4.85193 -3.66435 5.05274e-006 2.1234e-005 -1.18891e-005 -7.95139e-016 3.18055e-015 1.2921e-015 -7.72434e-032 3.18055e-015 1.39149e-015 5.05274e-006 2.1234e-005 -1.18891e-005 0.0129516 0.00229805 -7.78074e-005 3.35561e-006 4.59512e-007 -5.73946e-006 5.05274e-006 2.1234e-005 -1.18891e-005 0.0163043 0.00302314 -0.000862108 -2.78299e-015 1.59028e-015 9.14409e-015 5.05274e-006 2.1234e-005 -1.18891e-005 0.0145286 0.00365094 -0.00324814 -1.4991e-006 1.2326e-005 -5.69197e-006 5.05274e-006 2.1234e-005 -1.18891e-005 -7.95139e-016 3.18055e-015 1.2921e-015 -7.72434e-032 3.18055e-015 1.39149e-015 -68.7072 -69.9824 -99.2414 -3.48024 34.9605 45.688 -21.9947 -2.17891 -6.10266 3.97039e-008 -2.69426e-009 -4.23404e-007 71.4706 -69.7213 101.764 3.66521 36.6693 -45.7974 22.3266 -2.80542 6.27031 -5.81986e-006 -1.82406e-006 8.31467e-007 
39.8396 41.5643 18.706 179.997 58.9947 3.01462e-008 -0.0269184 8.28835 -0.0845006 -0.0420013 16.5768 -0.167696 -0.0420013 16.5769 -0.167697 2.0088e-007 13.7636 9.17398e-007 9.60827e-008 0.120022 1.39443e-008 -16.2089 -1.89999 -14.9419 44.8759 13.2747 -35.9841 0.414768 -14.9413 -35.8695 1.6551 -1.48773 5.88811 2.20695e-032 6.36111e-015 -1.98785e-016 0 9.54166e-015 -0 7.95139e-016 9.54166e-015 5.96354e-016 2.20695e-032 6.36111e-015 -1.98785e-016 -0.012862 0.00232069 8.41715e-005 -1.59028e-015 9.54166e-015 -1.39149e-015 2.20695e-032 6.36111e-015 -1.98785e-016 -0.0160563 0.00299238 0.000855935 3.08973e-031 -6.36111e-015 2.78299e-015 2.20695e-032 6.36111e-015 -1.98785e-016 -0.0125981 0.00310985 0.00282579 -7.95139e-016 6.36111e-015 2.5842e-015 2.20695e-032 6.36111e-015 -1.98785e-016 0 9.54166e-015 -0 7.95139e-016 9.54166e-015 5.96354e-016 9.01463 -2.57295 8.73701 -37.7908 8.67448 39.2591 1.56719 -19.3104 36.243 -1.73816 4.79414 -3.89673 -7.95139e-016 3.18055e-015 -1.98785e-015 -7.95139e-016 0 -1.19271e-015 -1.59028e-015 0 -3.97569e-016 -7.95139e-016 3.18055e-015 -1.98785e-015 0.0129157 0.00231103 -8.9337e-005 1.59028e-015 0 -1.59028e-015 -7.95139e-016 3.18055e-015 -1.98785e-015 0.0163462 0.00304584 -0.000878689 6.15578e-007 -3.57062e-006 4.32338e-006 -7.95139e-016 3.18055e-015 -1.98785e-015 0.0146116 0.00369278 -0.00327477 1.13296e-006 3.27768e-006 -3.17975e-006 -7.95139e-016 3.18055e-015 -1.98785e-015 -7.95139e-016 0 -1.19271e-015 -1.59028e-015 0 -3.97569e-016 -54.2781 -71.8243 -84.0841 -1.57062 34.9541 42.1568 -21.7136 -2.43655 -6.0679 -3.8266e-015 0 -0 54.546 -71.6677 84.3237 1.57453 34.9314 -42.173 21.4823 -2.45019 5.95891 -2.65592e-006 -3.96354e-007 -1.76307e-008 
39.8383 41.5642 18.7071 179.997 58.9947 -3.03485e-008 -0.0275219 8.47138 -0.084262 -0.0430024 16.9429 -0.167148 -0.0430023 16.9429 -0.167149 2.91797e-007 13.5885 1.09316e-006 1.36519e-008 0.119583 6.52588e-008 -15.2656 -2.41106 -15.3276 44.1524 13.1327 -35.8619 0.406753 -14.9374 -35.8695 1.8727 -1.2676 6.32138 -1.42922e-006 7.44222e-006 6.80751e-007 9.93129e-032 9.54166e-015 -5.96354e-016 8.97518e-007 2.40548e-006 6.2324e-006 -1.42922e-006 7.44222e-006 6.80751e-007 -0.0128497 0.00232335 8.10746e-005 1.89137e-007 8.47948e-006 1.2025e-006 -1.42922e-006 7.44222e-006 6.80751e-007 -0.0160217 0.00299568 0.000860954 -1.52555e-006 4.16002e-006 7.94825e-008 -1.42922e-006 7.44222e-006 6.80751e-007 -0.0125918 0.0031137 0.00282863 4.61165e-006 1.22053e-005 1.02827e-005 -1.42922e-006 7.44222e-006 6.80751e-007 9.93129e-032 9.54166e-015 -5.96354e-016 8.97518e-007 2.40548e-006 6.2324e-006 8.17714 -3.19058 9.08779 -37.1638 8.60377 39.2101 1.56733 -19.3102 36.243 -1.87414 5.00992 -4.31874 1.29582e-005 1.60974e-005 -6.77073e-006 7.95139e-016 -3.18055e-015 -3.57812e-015 -1.29582e-005 -1.60974e-005 6.77072e-006 1.29582e-005 1.60974e-005 -6.77073e-006 0.0129519 0.00231693 -8.67344e-005 1.59028e-015 -9.54166e-015 7.95139e-016 1.29582e-005 1.60974e-005 -6.77073e-006 0.0163037 0.00303715 -0.000873805 -0 0 7.95139e-016 1.29582e-005 1.60974e-005 -6.77073e-006 0.0145776 0.0036597 -0.00326743 -1.10348e-031 3.18055e-015 1.98785e-015 1.29582e-005 1.60974e-005 -6.77073e-006 7.95139e-016 -3.18055e-015 -3.57812e-015 -1.29582e-005 -1.60974e-005 6.77072e-006 -53.7176 -72.1891 -83.5638 -1.57149 34.9804 42.1553 -22.1544 -2.40955 -6.27851 -9.44227e-016 -7.95139e-016 -0 54.2387 -71.8965 84.04 1.57499 34.948 -42.1721 21.7626 -2.44489 6.09546 2.18663e-015 0 1.59028e-015 
39.8371 41.564 18.7082 179.997 58.9947 7.3848e-008 -0.028128 8.65484 -0.0840167 -0.0440122 17.3097 -0.166584 -0.0440123 17.3098 -0.166584 1.77686e-007 13.4134 1.10765e-006 1.20103e-008 0.119128 5.78135e-009 -14.3246 -2.92868 -15.7053 43.4291 12.9902 -35.7415 0.399649 -14.9341 -35.8695 2.08864 -1.04573 6.75385 7.95139e-016 -3.18055e-015 2.78299e-015 7.95139e-016 0 1.19271e-015 -7.95139e-016 0 5.96354e-016 7.95139e-016 -3.18055e-015 2.78299e-015 -0.0128042 0.00232315 7.86878e-005 -1.65521e-031 -3.18055e-015 -2.98177e-015 7.95139e-016 -3.18055e-015 2.78299e-015 -0.016055 0.00300838 0.000862482 1.59028e-015 -6.36111e-015 -2.18663e-015 7.95139e-016 -3.18055e-015 2.78299e-015 -0.0125919 0.00313276 0.00282199 -1.59028e-015 -1.27222e-014 -1.39149e-015 7.95139e-016 -3.18055e-015 2.78299e-015 7.95139e-016 0 1.19271e-015 -7.95139e-016 0 5.96354e-016 7.34232 -3.81363 9.42994 -36.5366 8.53298 39.1619 1.5669 -19.3102 36.2429 -2.0086 5.2267 -4.74041 -7.95139e-016 3.18055e-015 -7.95139e-016 2.38542e-015 0 -1.19271e-015 -7.95139e-016 -3.18055e-015 -1.98785e-015 -7.95139e-016 3.18055e-015 -7.95139e-016 0.0128904 0.00231419 -9.40031e-005 1.10348e-031 3.18055e-015 -1.98785e-015 -7.95139e-016 3.18055e-015 -7.95139e-016 0.0163384 0.00304207 -0.000883267 7.95139e-016 0 -1.98785e-015 -7.95139e-016 3.18055e-015 -7.95139e-016 0.0145954 0.00368577 -0.00326717 -7.95139e-016 3.18055e-015 3.57812e-015 -7.95139e-016 3.18055e-015 -7.95139e-016 2.38542e-015 0 -1.19271e-015 -7.95139e-016 -3.18055e-015 -1.98785e-015 -53.1351 -72.5523 -83.0217 -1.57243 35.0072 42.1538 -22.5954 -2.38127 -6.48904 3.27253e-006 -9.86235e-007 -1.24345e-007 53.923 -72.125 83.7481 1.57559 34.9646 -42.1712 22.043 -2.43909 6.232 6.21202e-015 1.59028e-015 -0 
